<svg width="19" height="19" viewBox="0 0 19 19" fill="none" xmlns="http://www.w3.org/2000/svg">
<circle cx="9.72717" cy="9.37174" r="8.95691" fill="#FFB701"/>
<path d="M13.4989 4.92671C12.437 3.70687 11.397 3.67543 10.3077 4.92671L9.6454 5.68754C9.59067 5.75042 9.56877 5.85103 9.59067 5.93906C10.0067 7.60534 11.1671 8.93836 12.6176 9.41624C12.6395 9.42253 12.6614 9.42881 12.6833 9.42881C12.7435 9.42881 12.7982 9.40366 12.842 9.35336L13.4989 8.59253C14.0407 7.97632 14.3035 7.37897 14.3035 6.77534C14.309 6.15284 14.0462 5.54921 13.4989 4.92671Z" fill="#F9F9F9"/>
<path d="M11.632 9.98816C11.4732 9.90013 11.32 9.8121 11.1722 9.7115C11.0518 9.62976 10.9368 9.54173 10.8219 9.44741C10.7288 9.37824 10.6193 9.27764 10.5153 9.17703C10.5044 9.17074 10.4661 9.13302 10.4223 9.08271C10.2417 8.90665 10.0391 8.68029 9.85851 8.42878C9.84209 8.4162 9.81472 8.37219 9.77641 8.31559C9.72167 8.24014 9.62862 8.11438 9.54651 7.96976C9.48083 7.87544 9.4042 7.73711 9.33304 7.59878C9.24546 7.42901 9.16883 7.25923 9.0922 7.08317C8.99728 6.84951 8.68945 6.785 8.52385 6.97523L5.46317 10.4912C5.39201 10.5729 5.32633 10.7301 5.30991 10.837L5.01433 13.2453C4.95959 13.6728 5.06359 14.0753 5.29349 14.3456C5.49054 14.5657 5.76422 14.6852 6.0598 14.6852C6.12548 14.6852 6.19116 14.6789 6.25685 14.6663L8.35873 14.3268C8.45726 14.3079 8.5941 14.2325 8.65978 14.1507L11.761 10.5882C11.926 10.3986 11.857 10.1002 11.632 9.98816Z" fill="#F9F9F9"/>
</svg>
