<svg width="251" height="171" viewBox="0 0 251 171" fill="none" xmlns="http://www.w3.org/2000/svg">
<path d="M121.243 155.873C154.161 155.873 180.846 129.188 180.846 96.2696C180.846 63.3515 154.161 36.666 121.243 36.666C88.3245 36.666 61.639 63.3515 61.639 96.2696C61.639 129.188 88.3245 155.873 121.243 155.873Z" fill="#F6F7E7"/>
<path d="M177.473 90.876C202.396 90.876 222.6 70.6717 222.6 45.7485C222.6 20.8253 202.396 0.621094 177.473 0.621094C152.549 0.621094 132.345 20.8253 132.345 45.7485C132.345 70.6717 152.549 90.876 177.473 90.876Z" fill="#F07A6D"/>
<path d="M146.321 93.0269L162.473 162.547L184.029 157.539L167.876 88.0187L146.321 93.0269Z" fill="#F69B98"/>
<path d="M169.132 168.564L223.756 155.873C226.48 155.24 228.175 152.518 227.542 149.794L224.826 138.104C224.193 135.38 221.472 133.684 218.747 134.317L164.124 147.009C161.399 147.642 159.704 150.363 160.337 153.088L163.053 164.777C163.686 167.501 166.407 169.197 169.132 168.564Z" fill="#F69B98"/>
<path d="M75.949 86.228L59.7968 155.748L81.3521 160.756L97.5044 91.2362L75.949 86.228Z" fill="#F69B98"/>
<path d="M79.7021 145.22L25.0785 132.529C22.3541 131.896 19.6324 133.591 18.9994 136.316L16.2835 148.005C15.6505 150.73 17.3459 153.451 20.0703 154.084L74.6939 166.776C77.4183 167.408 80.14 165.713 80.773 162.989L83.4889 151.299C84.1219 148.575 82.4265 145.853 79.7021 145.22Z" fill="#F69B98"/>
<path fill-rule="evenodd" clip-rule="evenodd" d="M86.6578 107.254L85.9192 168.973H156.628V135.768L177.473 129.746C177.473 129.746 173.599 107.438 170.98 92.3528C170.278 88.313 168.33 84.5938 165.41 81.7154C162.49 78.837 158.743 76.9434 154.694 76.2994C131.296 72.493 114.739 72.3442 89.4334 76.2101C85.428 76.8054 81.7044 78.6239 78.7722 81.4166C75.84 84.2094 73.8423 87.84 73.0527 91.8117C69.9876 107.164 65.375 130.349 65.375 130.349L86.3034 136.16L86.6578 107.254Z" fill="#F5D829"/>
<path fill-rule="evenodd" clip-rule="evenodd" d="M112.61 101.211C112.61 101.211 118.213 109.516 124.665 106.827C131.117 104.138 136.498 95.9381 136.498 89.7537C136.498 83.5694 114.536 102.447 112.61 101.211Z" fill="#F69B98"/>
<path fill-rule="evenodd" clip-rule="evenodd" d="M104.194 68.7433C103.498 72.4523 101.356 85.6353 103.699 92.5501C106.041 99.4649 116.522 103.769 120.715 103.401C124.908 103.033 133.292 98.0933 135.264 91.0595C137.236 84.0256 137.853 70.2285 137.853 70.2285C137.853 70.2285 136.252 58.8851 126.761 55.5575C117.271 52.23 105.679 60.8573 104.199 68.7487L104.194 68.7433Z" fill="#F69B98"/>
<path fill-rule="evenodd" clip-rule="evenodd" d="M102.508 78.136C102.508 78.136 100.298 76.4019 97.3682 78.7691C94.4383 81.1362 94.9334 85.4755 98.3935 87.9212C101.854 90.3668 103.918 88.2377 103.839 87.1339C103.761 86.0301 102.487 78.136 102.487 78.136H102.508Z" fill="#F69B98"/>
<path fill-rule="evenodd" clip-rule="evenodd" d="M124.948 73.9298C124.948 73.9297 124.948 73.9295 124.651 73.5172C124.354 73.1048 124.355 73.1046 124.355 73.1045L124.355 73.1042L124.356 73.1036L124.358 73.102L124.364 73.098C124.368 73.0949 124.374 73.091 124.381 73.0863C124.395 73.077 124.413 73.0646 124.437 73.0499C124.483 73.0206 124.549 72.9816 124.63 72.9385C124.793 72.8526 125.025 72.7475 125.306 72.6697C125.871 72.5134 126.661 72.462 127.464 72.9255L126.957 73.8058C126.456 73.5172 125.966 73.5416 125.577 73.6491C125.382 73.7031 125.219 73.7769 125.105 73.837C125.049 73.8668 125.006 73.8925 124.979 73.9097C124.965 73.9182 124.956 73.9245 124.95 73.9281L124.946 73.931L124.947 73.9304L124.947 73.93L124.948 73.9298ZM124.946 73.931C124.946 73.9312 124.946 73.9311 124.946 73.931V73.931ZM109.236 73.7687L108.939 73.3568L107.523 74.3792L113.513 74.0246L112.05 73.1775C111.246 72.7122 110.457 72.7635 109.891 72.9203C109.61 72.9984 109.377 73.1039 109.215 73.19C109.133 73.2333 109.068 73.2724 109.021 73.3018C108.998 73.3165 108.979 73.3289 108.965 73.3383C108.959 73.343 108.953 73.3469 108.948 73.35L108.943 73.3541L108.941 73.3556L108.94 73.3562L108.939 73.3565C108.939 73.3567 108.939 73.3568 109.236 73.7687Z" fill="#242632"/>
<path fill-rule="evenodd" clip-rule="evenodd" d="M125.945 73.4238C126.537 73.4238 127.027 73.9838 127.027 74.671C127.027 75.3581 126.545 75.9181 125.945 75.9181C125.344 75.9181 124.862 75.3608 124.862 74.671C124.862 73.9811 125.344 73.4238 125.945 73.4238Z" fill="#242632"/>
<path fill-rule="evenodd" clip-rule="evenodd" d="M110.519 73.7129C111.111 73.7129 111.601 74.2729 111.601 74.96C111.601 75.6472 111.119 76.2072 110.519 76.2072C109.918 76.2072 109.437 75.6499 109.437 74.96C109.437 74.2702 109.915 73.7129 110.519 73.7129Z" fill="#242632"/>
<path fill-rule="evenodd" clip-rule="evenodd" d="M112.764 67.7435C111.482 67.987 109.082 69.4289 108.135 70.108C107.102 70.8492 108.097 68.5984 109.28 67.3107C110.462 66.023 111.325 64.811 112.147 65.8931C112.97 66.9752 113.521 67.5974 112.764 67.7435Z" fill="#242632"/>
<path fill-rule="evenodd" clip-rule="evenodd" d="M125.073 67.5028C126.356 67.749 128.755 69.1909 129.699 69.8672C130.735 70.6085 130.687 68.8717 129.072 67.3432C127.803 66.142 126.512 64.5729 125.69 65.6524C124.868 66.7318 124.316 67.3594 125.073 67.5028Z" fill="#242632"/>
<path fill-rule="evenodd" clip-rule="evenodd" d="M136.598 79.0845C138.808 77.8238 140.532 77.042 142.201 78.9276C144.614 81.6546 144.806 87.8984 139.912 87.8552C135.938 87.8119 135.584 86.5025 135.584 86.5025C135.584 86.5025 134.399 80.3479 136.609 79.0845H136.598Z" fill="#F69B98"/>
<path fill-rule="evenodd" clip-rule="evenodd" d="M137.163 70.2656C137.163 70.2656 137.163 70.2657 137.84 70.3021C138.516 70.3385 138.516 70.3385 138.516 70.3386L138.516 70.3398L138.515 70.3545L138.513 70.399C138.511 70.4378 138.507 70.4948 138.502 70.5684C138.493 70.7157 138.479 70.9296 138.459 71.1979C138.419 71.7345 138.356 72.4896 138.264 73.3659C138.08 75.113 137.78 77.3631 137.311 79.3248L135.993 79.01C136.442 77.1328 136.735 74.9503 136.916 73.2244C137.006 72.3642 137.068 71.6228 137.108 71.097C137.127 70.8341 137.141 70.6253 137.15 70.4827C137.155 70.4114 137.158 70.3566 137.16 70.3199L137.163 70.2787L137.163 70.2662L137.163 70.2656ZM103.949 89.1148C104.386 91.9208 105.496 95.2707 108.141 97.6942C112.049 101.272 116.579 102.09 120.694 101.463C124.833 100.833 128.518 98.743 130.645 96.5605L131.616 97.5062C129.282 99.9011 125.326 102.129 120.898 102.803C116.445 103.481 111.483 102.591 107.226 98.6936C104.261 95.977 103.071 92.2795 102.611 89.3232C102.379 87.8385 102.329 86.5208 102.337 85.5734C102.34 85.0991 102.358 84.7162 102.376 84.4497C102.385 84.3164 102.393 84.2122 102.4 84.14C102.403 84.104 102.406 84.076 102.408 84.0563L102.41 84.0333L102.411 84.0266L102.411 84.0244L102.411 84.0237C102.411 84.0234 102.411 84.0231 103.085 84.0992C103.758 84.1753 103.758 84.1751 103.758 84.1749L103.757 84.1781L103.756 84.1938C103.754 84.2083 103.752 84.2312 103.749 84.262C103.744 84.3236 103.736 84.4167 103.728 84.5383C103.712 84.7816 103.695 85.1384 103.692 85.584C103.685 86.4761 103.732 87.7184 103.949 89.1148Z" fill="#242632"/>
<path fill-rule="evenodd" clip-rule="evenodd" d="M49.1398 167.959H199.754V170.747H49.1398V167.959Z" fill="#231F20"/>
<path fill-rule="evenodd" clip-rule="evenodd" d="M14.5232 163.657L13.3978 122.338C13.3978 122.338 13.7089 119.565 16.5198 119.717C19.3306 119.868 21.0999 119.446 21.1675 123.475C21.2351 127.503 21.8087 159.599 21.9791 162.483C22.1495 165.366 16.7687 167.753 14.5259 163.657H14.5232Z" fill="#231F20" stroke="#231F20" stroke-width="4" stroke-miterlimit="1.5" stroke-linecap="square"/>
<path fill-rule="evenodd" clip-rule="evenodd" d="M22.4092 86.4998C25.8653 87.3034 29.0056 89.1138 31.4329 91.7021C33.8602 94.2904 35.4655 97.5403 36.0458 101.041C36.6262 104.541 36.1555 108.136 34.6933 111.369C33.2311 114.602 30.843 117.329 27.8311 119.205C24.8191 121.081 21.3186 122.021 17.772 121.908C14.2255 121.794 10.7922 120.632 7.90632 118.567C5.02045 116.502 2.81159 113.628 1.55904 110.309C0.306485 106.989 0.0664965 103.372 0.869413 99.9155C1.94823 95.281 4.82312 91.2645 8.86218 88.7488C12.9012 86.2331 17.7739 85.4242 22.4092 86.4998Z" fill="#231F20"/>
<path fill-rule="evenodd" clip-rule="evenodd" d="M20.7968 92.2825C23.1478 92.8288 25.284 94.06 26.9353 95.8204C28.5865 97.5808 29.6787 99.7913 30.0737 102.172C30.4687 104.554 30.1487 106.998 29.1542 109.198C28.1598 111.397 26.5355 113.252 24.4868 114.528C22.4381 115.804 20.057 116.444 17.6446 116.367C15.2322 116.29 12.8968 115.499 10.9338 114.095C8.97076 112.69 7.46829 110.735 6.61633 108.477C5.76437 106.219 5.6012 103.759 6.14746 101.408C6.88128 98.2556 8.83649 95.5239 11.5834 93.8129C14.3303 92.1018 17.6442 91.5514 20.7968 92.2825Z" fill="#DCDEF0" stroke="#231F20" stroke-width="4" stroke-miterlimit="1.5" stroke-linecap="square"/>
<path fill-rule="evenodd" clip-rule="evenodd" d="M19.2061 128.583C27.3626 130.477 32.5298 138.284 30.7361 146.005C28.9425 153.726 20.8617 158.45 12.7052 156.556C4.54864 154.662 -0.615816 146.857 1.16969 139.136C2.95521 131.415 11.0414 126.692 19.1979 128.586L19.2061 128.583Z" fill="#F69B98"/>
<path d="M13.5735 127.912C13.5735 127.912 28.1065 125.893 30.8875 139.398C33.6686 152.903 21.6056 157.73 14.2011 157.429" stroke="#231F20" stroke-linecap="square" stroke-linejoin="round"/>
<path fill-rule="evenodd" clip-rule="evenodd" d="M16.889 136.679L29.2442 135.564L29.366 136.914L17.0108 138.029L16.889 136.679ZM17.5682 142.357L29.9234 141.246L30.0449 142.595L17.6897 143.707L17.5682 142.357ZM31.1471 148.608L17.4424 149.841L17.3209 148.492L31.0256 147.258L31.1471 148.608Z" fill="#231F20"/>
<path fill-rule="evenodd" clip-rule="evenodd" d="M122.609 61.8419C122.609 61.8419 105 68.1669 103.014 64.6392C101.028 61.1115 109.704 44.9769 123.818 49.2189C137.932 53.4608 136.498 58.1924 136.498 58.1924C136.498 58.1924 142.774 56.4772 142.977 60.308C143.18 64.1387 137.318 74.9465 137.423 74.7354C137.529 74.5244 139.347 61.0492 122.609 61.8419Z" fill="#242632"/>
<path fill-rule="evenodd" clip-rule="evenodd" d="M105.955 55.707C105.955 55.707 99.2673 57.571 100.931 64.3776C102.595 71.1842 103.309 73.5405 103.309 73.5405C103.309 73.5405 104.321 66.8259 105.349 65.4759C106.377 64.126 105.955 55.707 105.955 55.707Z" fill="#242632"/>
<path fill-rule="evenodd" clip-rule="evenodd" d="M23.2043 96.2715C23.2043 96.2715 27.1974 99.4475 26.7618 103.324L23.2043 96.2715Z" fill="#DCDEF0"/>
<path d="M23.2043 96.2715C23.2043 96.2715 27.1974 99.4475 26.7618 103.324" stroke="white" stroke-width="4" stroke-miterlimit="1.5" stroke-linecap="square"/>
<path d="M26.4536 105.582L26.1506 107.403" stroke="white" stroke-width="4" stroke-miterlimit="1.5" stroke-linecap="square"/>
<path fill-rule="evenodd" clip-rule="evenodd" d="M109.841 100.283C109.841 100.283 109.841 100.283 110.519 100.287C111.196 100.291 111.196 100.291 111.196 100.29L111.196 100.29L111.196 100.289C111.196 100.289 111.196 100.29 111.196 100.291L111.196 100.302C111.196 100.313 111.197 100.332 111.198 100.358C111.199 100.41 111.203 100.491 111.211 100.596C111.227 100.806 111.261 101.114 111.33 101.491C111.468 102.248 111.749 103.274 112.315 104.35C113.432 106.476 115.693 108.862 120.365 109.711L120.123 111.044C115.019 110.116 112.416 107.456 111.115 104.981C110.472 103.757 110.154 102.593 109.997 101.736C109.918 101.306 109.879 100.951 109.86 100.699C109.85 100.573 109.846 100.473 109.843 100.403C109.842 100.367 109.842 100.34 109.841 100.319C109.841 100.309 109.841 100.301 109.841 100.295L109.841 100.287L109.841 100.285L109.841 100.283ZM111.196 100.289V100.289V100.289Z" fill="#242632"/>
<path fill-rule="evenodd" clip-rule="evenodd" d="M118.414 74.6562L119.228 75.2646L115.313 80.5035L118.237 80.9747L115.998 85.0136L115.109 84.5208L116.646 81.7477L113.494 81.2396L118.414 74.6562Z" fill="#242632"/>
<path fill-rule="evenodd" clip-rule="evenodd" d="M113.387 91.3003L113.124 90.875C112.861 90.4497 112.861 90.4496 112.861 90.4496L112.863 90.4484L112.868 90.4452L112.888 90.4333C112.905 90.4231 112.929 90.4083 112.961 90.3893C113.024 90.3512 113.117 90.2963 113.235 90.2278C113.472 90.091 113.811 89.9 114.224 89.6815C115.05 89.2454 116.18 88.6958 117.387 88.2502C118.587 87.8072 119.898 87.4532 121.075 87.4362C122.255 87.4191 123.397 87.7436 124.089 88.7691L123.26 89.3287C122.834 88.6972 122.098 88.4215 121.09 88.4361C120.079 88.4507 118.892 88.7604 117.734 89.1882C116.582 89.6134 115.494 90.1417 114.691 90.5658C114.291 90.7774 113.963 90.962 113.736 91.0934C113.623 91.159 113.534 91.2113 113.475 91.2469C113.445 91.2647 113.423 91.2783 113.408 91.2874L113.392 91.2974L113.388 91.2998L113.387 91.3003Z" fill="#242632"/>
<path fill-rule="evenodd" clip-rule="evenodd" d="M85.3447 160.149L85.9669 107.246L87.3218 107.262L86.6996 160.165L85.3447 160.149Z" fill="#242632"/>
<path fill-rule="evenodd" clip-rule="evenodd" d="M155.963 147.993L156.12 109.242L157.136 109.246L156.979 147.997L155.963 147.993Z" fill="black"/>
<path d="M233.783 127.526L216.45 131.934C214.712 132.376 213.662 134.143 214.104 135.881L219.035 155.269C219.477 157.007 221.244 158.057 222.981 157.615L240.314 153.207C242.052 152.765 243.102 150.998 242.66 149.26L237.729 129.872C237.287 128.134 235.52 127.084 233.783 127.526Z" fill="#F69B98"/>
<path d="M215.662 120.451L213.232 120.951C211.72 121.262 210.747 122.739 211.058 124.251L213.558 136.409C213.869 137.92 215.346 138.894 216.858 138.583L219.288 138.083C220.8 137.772 221.773 136.295 221.462 134.783L218.962 122.626C218.651 121.114 217.174 120.14 215.662 120.451Z" fill="#F69B98"/>
<path d="M244.315 124.965L231.751 128.161C230.56 128.464 229.841 129.674 230.144 130.864L230.564 132.519C230.867 133.709 232.077 134.428 233.268 134.126L245.832 130.93C247.022 130.627 247.741 129.417 247.439 128.227L247.018 126.572C246.715 125.382 245.505 124.663 244.315 124.965Z" fill="#F69B98"/>
<path d="M246.749 131.305L234.185 134.501C232.995 134.803 232.276 136.014 232.578 137.204L232.999 138.858C233.302 140.049 234.512 140.768 235.702 140.465L248.266 137.27C249.457 136.967 250.176 135.757 249.873 134.567L249.452 132.912C249.15 131.722 247.939 131.002 246.749 131.305Z" fill="#F69B98"/>
<path d="M247.015 137.993L234.451 141.188C233.261 141.491 232.541 142.701 232.844 143.891L233.265 145.546C233.568 146.736 234.778 147.456 235.968 147.153L248.532 143.957C249.722 143.655 250.442 142.444 250.139 141.254L249.718 139.6C249.416 138.409 248.205 137.69 247.015 137.993Z" fill="#F69B98"/>
<path d="M246.002 145.229L233.439 148.425C232.248 148.727 231.529 149.938 231.831 151.128L232.252 152.782C232.555 153.972 233.765 154.692 234.956 154.389L247.519 151.194C248.71 150.891 249.429 149.681 249.126 148.49L248.706 146.836C248.403 145.646 247.193 144.926 246.002 145.229Z" fill="#F69B98"/>
<path fill-rule="evenodd" clip-rule="evenodd" d="M234.198 133.349L245.982 130.1L246.248 131.064L234.463 134.313L234.198 133.349Z" fill="#242632"/>
<path fill-rule="evenodd" clip-rule="evenodd" d="M236.029 140.216L247.811 136.967L248.076 137.931L236.295 141.18L236.029 140.216Z" fill="#242632"/>
<path fill-rule="evenodd" clip-rule="evenodd" d="M236.429 146.624L248.211 143.375L248.477 144.339L236.695 147.588L236.429 146.624Z" fill="#242632"/>
<path d="M154.453 112.586H89.1089V120.396H154.453V112.586Z" fill="white"/>
<path d="M154.228 121.377H88.8842V123.493H154.228V121.377Z" fill="white"/>
<path fill-rule="evenodd" clip-rule="evenodd" d="M185.202 45.922L195.35 56.0697L187.453 63.9665L177.305 53.8188L167.493 63.6256L159.596 55.7288L169.405 45.922L159.255 35.7689L167.152 27.8721L177.305 38.0225L187.794 27.5312L195.69 35.4281L185.202 45.922Z" fill="white"/>
<path fill-rule="evenodd" clip-rule="evenodd" d="M57.6188 83.5949L63.2594 89.2328L58.8713 93.6209L53.2334 87.983L47.7822 93.4315L43.3942 89.0435L48.8454 83.5949L43.2048 77.9543L47.5929 73.5663L53.2334 79.2069L59.0607 73.377L63.4487 77.765L57.6188 83.5949Z" fill="#DCDEF0"/>
<path fill-rule="evenodd" clip-rule="evenodd" d="M90.8457 18.8613L96.6586 24.6742L90.5283 30.8045L96.4584 36.7346L90.6455 42.5475L84.7153 36.6173L78.9827 42.3471L73.1698 36.5342L78.9024 30.8043L72.9697 24.8717L78.7827 19.0588L84.7154 24.9916L90.8457 18.8613ZM90.8457 21.2566L84.7154 27.3868L78.7827 21.4541L75.365 24.8717L81.2979 30.8046L75.5653 36.5345L78.983 39.9521L84.7155 34.2223L90.6455 40.1522L94.0631 36.7346L88.1331 30.8045L94.2633 24.6742L90.8457 21.2566Z" fill="#DCDEF0"/>
<path fill-rule="evenodd" clip-rule="evenodd" d="M199.175 104.105L202.256 107.184L199.859 109.584L196.778 106.502L193.802 109.478L191.402 107.081L194.381 104.105L191.3 101.024L193.696 98.6243L196.778 101.708L199.962 98.5215L202.359 100.918L199.175 104.105Z" fill="#DCDEF0"/>
</svg>
