<svg width="61" height="61" viewBox="0 0 61 61" fill="none" xmlns="http://www.w3.org/2000/svg">
<rect x="1.15625" y="0.782715" width="59.3154" height="59.3154" rx="13.5" fill="white" stroke="#EEEEEE"/>
<path d="M48.3788 41.6184C48.3788 42.4654 48.0423 43.2777 47.4434 43.8766C46.8444 44.4756 46.0321 44.812 45.1851 44.812H16.4424C15.5954 44.812 14.7831 44.4756 14.1842 43.8766C13.5853 43.2777 13.2488 42.4654 13.2488 41.6184V24.0534C13.2488 23.2064 13.5853 22.3941 14.1842 21.7952C14.7831 21.1963 15.5954 20.8598 16.4424 20.8598H22.8297L26.0233 16.0693H35.6042L38.7979 20.8598H45.1851C46.0321 20.8598 46.8444 21.1963 47.4434 21.7952C48.0423 22.3941 48.3788 23.2064 48.3788 24.0534V41.6184Z" fill="#F9DA02"/>
<path d="M30.8138 38.4248C34.3414 38.4248 37.201 35.5651 37.201 32.0375C37.201 28.5099 34.3414 25.6502 30.8138 25.6502C27.2862 25.6502 24.4265 28.5099 24.4265 32.0375C24.4265 35.5651 27.2862 38.4248 30.8138 38.4248Z" fill="#F9DA02"/>
<circle cx="30.814" cy="32.5762" r="6.76616" fill="#F7C906"/>
<circle cx="30.8138" cy="32.5763" r="3.51573" fill="white"/>
</svg>
