<svg width="62" height="61" viewBox="0 0 62 61" fill="none" xmlns="http://www.w3.org/2000/svg">
<rect x="1.45605" y="0.782715" width="59.3154" height="59.3154" rx="13.5" fill="white" stroke="#EEEEEE"/>
<rect x="18.687" y="16.1465" width="24.8534" height="12.8775" rx="2" fill="#F7C906"/>
<rect x="15.4678" y="19.752" width="31.2921" height="24.9822" rx="2" fill="#F9DA02"/>
<path d="M36.1725 32.4614C36.7028 31.8423 37.6604 31.8423 38.1906 32.4614L43.327 38.4587C44.0652 39.3206 43.4527 40.6515 42.3179 40.6515H32.0452C30.9104 40.6515 30.298 39.3206 31.0362 38.4587L36.1725 32.4614Z" fill="#F7C906"/>
<path d="M26.5023 29.583C27.0326 28.9639 27.9902 28.9639 28.5205 29.583L36.1223 38.4591C36.8605 39.3211 36.2481 40.6519 35.1133 40.6519H19.9095C18.7747 40.6519 18.1623 39.3211 18.9004 38.4591L26.5023 29.583Z" fill="#F7C906"/>
<circle cx="35.5012" cy="27.5988" r="2.32636" fill="white"/>
</svg>
